<?xml version="1.0" encoding="utf-8"?>
<!-- Generator: Adobe Illustrator 20.1.0, SVG Export Plug-In . SVG Version: 6.00 Build 0)  -->
<svg version="1.1" id="Layer_1" xmlns="http://www.w3.org/2000/svg" xmlns:xlink="http://www.w3.org/1999/xlink" x="0px" y="0px"
	 viewBox="0 0 183.4 74.6" style="enable-background:new 0 0 183.4 74.6;" xml:space="preserve">
<style type="text/css">
	.st0{fill:#FFFFFF;}
</style>
<g>
	<path id="Apple_1_" class="st0" d="M64.2,55c-0.4,1.2-0.9,2.3-1.3,3.4c-1.1,2.6-2.5,5-4,7.1c-2.1,3-3.9,5-5.2,6.2
		c-2.1,1.9-4.3,2.8-6.7,2.9c-1.7,0-3.8-0.5-6.2-1.4c-2.4-1-4.6-1.4-6.6-1.4c-2.1,0-4.4,0.5-6.8,1.4c-2.4,1-4.4,1.5-5.9,1.5
		c-2.3,0.1-4.6-0.9-6.8-3c-1.5-1.2-3.3-3.4-5.4-6.4c-2.3-3.2-4.2-7-5.7-11.2C1.8,49.5,1,45,1,40.7c0-4.9,1.1-9.2,3.3-12.8
		c1.7-2.9,4-5.1,6.8-6.8c2.8-1.7,5.9-2.5,9.2-2.6c1.8,0,4.2,0.6,7.2,1.6c2.9,1.1,4.8,1.6,5.7,1.6c0.6,0,2.7-0.6,6.3-1.9
		c3.4-1.2,6.2-1.7,8.5-1.5c6.3,0.5,11.1,2.9,14.2,7.4c-5.6,3.4-8.4,8.1-8.4,14.1c0.1,4.7,1.8,8.6,5.2,11.7
		C60.5,53.1,62.3,54.2,64.2,55z M48.3,0.9c0.1,0.5,0.1,1,0.1,1.5c0,3.7-1.4,7.1-4.1,10.3c-3.3,3.8-7.3,6-11.6,5.6
		c-0.1-0.4-0.1-0.9-0.1-1.4c0-3.5,1.6-7.3,4.4-10.4c1.4-1.6,3.2-2.9,5.3-3.9C44.4,1.6,46.4,1,48.3,0.9z"/>
	<polygon class="st0" points="113.2,42.4 101,42.4 101,30.3 95.9,30.3 95.9,42.4 83.8,42.4 83.8,47.5 95.9,47.5 95.9,59.7 101,59.7 
		101,47.5 113.2,47.5 	"/>
</g>
<g>
	<path class="st0" d="M135.9,72.7c0,0-1.2,0.8-5.2-5.2c-1-1.5-2.8-3.3-3.5-4.1c-0.2-0.2-0.2-0.6,0-0.8l10.9-10.9l0.2-0.1
		c0.2,0.4,1,1.9,4.2,5.1c3.2,3.2,4.7,4,5.1,4.2l0,0.2L135.9,72.7z"/>
	<path class="st0" d="M157.9,50.8l0.1-0.4l-9.1-9.1l-0.4,0l-8.8,8.8c0,0,0.4,1.4,4.2,5.2c3.8,3.8,5.2,4.2,5.2,4.2L157.9,50.8z"/>
	<path class="st0" d="M150.3,39.5l-0.1,0.4l9.1,9.1l0.4,0l8.5-8.5l0.1-0.4c-0.2-0.5-1-2.1-4.1-5.1c-3.1-3.1-4.6-3.8-5.1-4.1
		l-0.4,0.2L150.3,39.5z"/>
	<path class="st0" d="M161.5,28.3l1.9,0.4l9.2-11c0.6-0.8,4.4-0.4,4.4-0.4s1.3,0.3,2.9,1.9c1.6,1.6,1.8,2.9,1.8,2.9s0.4,3.9-0.3,4.5
		l-11,9.2l0.4,2l-0.9,0.9l-0.4,0.1c-0.2-0.5-1-2.1-4.1-5.1c-3.1-3.1-4.6-3.8-5.1-4.1l0.1-0.4L161.5,28.3z"/>
</g>
</svg>
